<?xml version="1.0" encoding="UTF-8" standalone="no"?>
<!-- Created with Inkscape (http://www.inkscape.org/) -->

<svg
   width="256"
   height="255.99998"
   viewBox="0 0 64 63.999996"
   version="1.1"
   id="svg1"
   inkscape:export-filename="Exports\end.png"
   inkscape:export-xdpi="96"
   inkscape:export-ydpi="96"
   inkscape:version="1.3.2 (091e20e, 2023-11-25, custom)"
   sodipodi:docname="GridGame.svg"
   xml:space="preserve"
   xmlns:inkscape="http://www.inkscape.org/namespaces/inkscape"
   xmlns:sodipodi="http://sodipodi.sourceforge.net/DTD/sodipodi-0.dtd"
   xmlns="http://www.w3.org/2000/svg"
   xmlns:svg="http://www.w3.org/2000/svg"><sodipodi:namedview
     id="namedview1"
     pagecolor="#ffffff"
     bordercolor="#000000"
     borderopacity="0.25"
     inkscape:showpageshadow="2"
     inkscape:pageopacity="0.0"
     inkscape:pagecheckerboard="0"
     inkscape:deskcolor="#d1d1d1"
     inkscape:document-units="px"
     inkscape:zoom="0.1767767"
     inkscape:cx="-65.053824"
     inkscape:cy="726.90577"
     inkscape:window-width="1920"
     inkscape:window-height="1057"
     inkscape:window-x="-8"
     inkscape:window-y="-8"
     inkscape:window-maximized="1"
     inkscape:current-layer="layer3"
     showgrid="false"
     showguides="false"
     guidecolor="#ff0000"
     guideopacity="0.49803922"><inkscape:grid
       id="grid1"
       units="px"
       originx="-510"
       originy="40"
       spacingx="2"
       spacingy="2"
       empcolor="#0099e5"
       empopacity="0.30196078"
       color="#0099e5"
       opacity="0.14901961"
       empspacing="5"
       dotted="false"
       gridanglex="30"
       gridanglez="30"
       visible="false"
       snapvisiblegridlinesonly="true" /></sodipodi:namedview><defs
     id="defs1"><linearGradient
       id="swatch25"
       inkscape:swatch="solid"><stop
         style="stop-color:#2c3f64;stop-opacity:1;"
         offset="0"
         id="stop25" /></linearGradient><filter
       inkscape:collect="always"
       style="color-interpolation-filters:sRGB"
       id="filter109"
       x="-0.076501209"
       y="-0.05318454"
       width="1.1530024"
       height="1.1063691"><feGaussianBlur
         inkscape:collect="always"
         stdDeviation="1.6117459"
         id="feGaussianBlur109" /></filter></defs><g
     id="g111"
     transform="matrix(0.99944327,0,0,1.0005572,-237.8321,13.972135)"
     style="display:inline;opacity:0"><path
       id="path110"
       style="display:inline;fill:#99c4ff;fill-opacity:1;fill-rule:nonzero;stroke:none;stroke-width:2.03338;stroke-linecap:round;stroke-linejoin:round;stroke-miterlimit:4;stroke-dasharray:none;stroke-dashoffset:0;stroke-opacity:1"
       d="m 328.66164,0.215865 a 4.4626876,5.0782303 0 0 0 -4.46289,5.078127 v 53.843749 a 4.4626876,5.0782303 0 0 0 1.4331,3.645019 4.4626876,5.0782303 0 0 0 3.06495,1.397462 h 55.07472 a 4.4626876,5.0782303 0 0 0 4.46287,-5.078126 V 5.258346 a 4.4626876,5.0782303 0 0 0 -1.43311,-3.645019 4.4626876,5.0782303 0 0 0 -3.06493,-1.397462 z"
       inkscape:export-filename="Exports\cell.png"
       inkscape:export-xdpi="96"
       inkscape:export-ydpi="96"
       transform="translate(-86.234155,-14.18022)" /><path
       id="path111"
       style="display:inline;fill:#89b1e5;fill-opacity:1;fill-rule:nonzero;stroke:none;stroke-width:2.03338;stroke-linecap:round;stroke-linejoin:round;stroke-miterlimit:4;stroke-dasharray:none;stroke-dashoffset:0;stroke-opacity:1"
       d="M 383.77151,64.18022 A 4.4626876,5.0782303 0 0 0 388.2344,59.1021 V 5.25835 a 4.4626876,5.0782303 0 0 0 -1.43311,-3.64502 l -61.16943,61.16943 a 4.4626876,5.0782303 0 0 0 3.06493,1.39746 z"
       inkscape:export-filename="Exports\cell.png"
       inkscape:export-xdpi="96"
       inkscape:export-ydpi="96"
       transform="translate(-86.234155,-14.18022)" /></g><g
     inkscape:groupmode="layer"
     id="layer3"
     inkscape:label="Capa 2"
     transform="matrix(0.79108002,0,0,0.76475923,-480.54555,35.515782)"
     style="display:inline"><g
       id="g226"
       style="display:inline"
       transform="matrix(0.43765443,0,0,0.45271724,375.41412,-2.9645266)"
       inkscape:export-filename="Exports\Pieces\end_green.svg"
       inkscape:export-xdpi="96"
       inkscape:export-ydpi="96"><path
         id="path112"
         style="display:none;opacity:0.23;fill:#000000;fill-opacity:1;stroke:none;stroke-width:0.514267;stroke-linecap:round;stroke-linejoin:bevel;stroke-dasharray:none;stroke-dashoffset:0;stroke-opacity:1;paint-order:stroke fill markers;filter:url(#filter109)"
         d="m 648.21778,-41.210071 a 25.281891,26.152021 0 0 0 -25.28189,26.152022 25.281891,26.152021 0 0 0 12.18728,22.3243518 c -0.017,0.2812254 -0.0284,0.5635377 -0.0284,0.8491745 v 9.6275957 c 0,7.633181 6.14471,13.778336 13.77789,13.778336 7.63318,0 13.77851,-6.145155 13.77851,-13.778336 V 8.1154773 c 0,-0.5706731 -0.0382,-1.1315717 -0.10493,-1.6836641 a 25.281891,26.152021 0 0 0 10.95343,-21.4898622 25.281891,26.152021 0 0 0 -25.2819,-26.152022 z"
         transform="matrix(2.2849078,0,0,2.2088843,-857.78663,6.6900793)" /><path
         id="path121"
         style="fill:#ffcc00;fill-opacity:1;stroke:#d4aa00;stroke-width:2;stroke-linejoin:bevel;stroke-dasharray:none;stroke-opacity:1;paint-order:stroke markers fill"
         d="m 624.68752,-74.422852 c -37.72655,0 -47,32.422868 -47,40.422852 0,7.999984 0.45479,20.96074 11.19678,34.44189453 11.43577,14.35184047 11.53759,19.52199247 11.5376,29.52197247 0,9.99998 3.26564,15.149183 9.26562,15.240723 h 15 15 c 5.99998,-0.09154 9.26562,-5.240743 9.26562,-15.240723 1e-5,-9.99998 0.10183,-15.170132 11.5376,-29.52197247 C 671.23273,-13.039259 671.68752,-26.000016 671.68752,-34 c 0,-7.999984 -9.27345,-40.422852 -47,-40.422852 z" /><path
         style="opacity:1;fill:none;fill-opacity:1;stroke:#ffe680;stroke-width:7.5;stroke-linecap:round;stroke-linejoin:bevel;stroke-dasharray:none;stroke-dashoffset:0;stroke-opacity:1;paint-order:stroke fill markers"
         d="m 587.36569,-29.784456 c 0,0 -2.91669,-27.234131 26.41356,-35.093146"
         id="path122"
         sodipodi:nodetypes="cc" /><path
         id="path123"
         style="fill:#d4aa00;fill-opacity:1;stroke:#d4aa00;stroke-width:0.5;stroke-linecap:round;stroke-linejoin:bevel;stroke-dasharray:none;stroke-opacity:1;paint-order:stroke markers fill"
         d="m 623.67749,-74.664398 c 18.36489,1.193032 40.38356,17.262626 38.78003,41.266449 -0.46552,6.96854 -1.80238,16.339186 -9.90136,26.4355467 -10.07387,12.5582974 -10.48144,17.6170953 -10.48145,26.6411133 0,9.024018 -2.96673,13.670808 -8.41748,13.753418 h -13.62695 -13.62696 c -2.36563,-0.03585 -5.68779,-0.175514 -6.23851,-5.42887 0.46029,12.850121 3.999,17.11229 9.83519,17.201331 h 15 15 c 5.99998,-0.09154 9.26514,-5.240753 9.26514,-15.240723 10e-6,-9.99997 0.10184,-15.170146 11.5376,-29.52197247 C 671.54472,-13.039248 672,-26.000026 672,-34.000002 c 0,-12.120312 -13.41383,-41.363807 -48.32251,-40.664396 z"
         sodipodi:nodetypes="cssscccccccsssc" /><ellipse
         style="opacity:1;fill:#ffe680;fill-opacity:1;stroke:none;stroke-width:0.452998;stroke-linecap:round;stroke-linejoin:bevel;stroke-dasharray:none;stroke-dashoffset:0;stroke-opacity:1;paint-order:stroke fill markers"
         id="ellipse123"
         cx="588.01215"
         cy="-18.950542"
         rx="3.5235007"
         ry="3.5235004" /><g
         id="g221"
         transform="matrix(1,0,0,0.79435483,-1.4843779,-11.649859)"><rect
           style="opacity:1;fill:#217728;fill-opacity:1;stroke:none;stroke-width:0.5;stroke-linecap:round;stroke-linejoin:bevel;stroke-dasharray:none;stroke-dashoffset:0;stroke-opacity:1;paint-order:stroke fill markers"
           id="rect220"
           width="43.840622"
           height="10.960155"
           x="604.39221"
           y="72.737831"
           ry="4.5418596" /><rect
           style="opacity:1;fill:#299332;fill-opacity:1;stroke:none;stroke-width:0.44069;stroke-linecap:round;stroke-linejoin:bevel;stroke-dasharray:none;stroke-dashoffset:0;stroke-opacity:1;paint-order:stroke fill markers"
           id="rect221"
           width="41.091923"
           height="9.0837193"
           x="604.39221"
           y="72.737831"
           ry="3.164959" /></g><g
         id="g223"
         transform="matrix(1,0,0,0.79435483,-1.4843779,-2.9436096)"><rect
           style="opacity:1;fill:#217728;fill-opacity:1;stroke:none;stroke-width:0.5;stroke-linecap:round;stroke-linejoin:bevel;stroke-dasharray:none;stroke-dashoffset:0;stroke-opacity:1;paint-order:stroke fill markers"
           id="rect222"
           width="43.840622"
           height="10.960155"
           x="604.39221"
           y="72.737831"
           ry="4.5418596" /><rect
           style="opacity:1;fill:#299332;fill-opacity:1;stroke:none;stroke-width:0.44069;stroke-linecap:round;stroke-linejoin:bevel;stroke-dasharray:none;stroke-dashoffset:0;stroke-opacity:1;paint-order:stroke fill markers"
           id="rect223"
           width="41.091923"
           height="9.0837193"
           x="604.39221"
           y="72.737831"
           ry="3.164959" /></g><g
         id="g225"
         transform="matrix(0.78337589,0,0,0.79435483,134.19002,5.7626398)"><rect
           style="opacity:1;fill:#217728;fill-opacity:1;stroke:none;stroke-width:0.5;stroke-linecap:round;stroke-linejoin:bevel;stroke-dasharray:none;stroke-dashoffset:0;stroke-opacity:1;paint-order:stroke fill markers"
           id="rect224"
           width="43.840622"
           height="10.960155"
           x="604.39221"
           y="72.737831"
           ry="4.5418596" /><rect
           style="opacity:1;fill:#299332;fill-opacity:1;stroke:none;stroke-width:0.44069;stroke-linecap:round;stroke-linejoin:bevel;stroke-dasharray:none;stroke-dashoffset:0;stroke-opacity:1;paint-order:stroke fill markers"
           id="rect225"
           width="41.091923"
           height="9.0837193"
           x="604.39221"
           y="72.737831"
           ry="3.164959" /></g></g></g></svg>
